<?xml version="1.0" standalone="no"?>
<!DOCTYPE svg PUBLIC "-//W3C//DTD SVG 20010904//EN"
 "http://www.w3.org/TR/2001/REC-SVG-20010904/DTD/svg10.dtd">
<svg version="1.1" xmlns="http://www.w3.org/2000/svg"
 class="favicon"
 width="32" height="32" viewBox="0 0 1024.000000 1024.000000"
 preserveAspectRatio="xMidYMid meet">


<style>
:root{color:#D35400;} /* burnt orange for light mode */
@media (prefers-color-scheme: dark){
  :root{color:#E67E22;} /* lighter orange/gold for dark mode */
}
</style>

<g transform="translate(0.000000,1024.000000) scale(0.100000,-0.100000)"
fill="currentColor" stroke="currentColor">
<path d="M4900 8130 c-233 -17 -607 -98 -818 -176 -421 -157 -769 -381 -1092
-704 -459 -457 -753 -1035 -850 -1668 -92 -598 -8 -1182 248 -1724 353 -749
1042 -1337 1867 -1593 297 -92 547 -128 885 -128 400 0 715 59 1075 200 955
375 1664 1198 1869 2168 48 232 60 351 60 630 0 217 -3 285 -22 410 -95 649
-375 1221 -821 1679 -400 410 -877 680 -1453 821 -333 82 -624 108 -948 85z
m650 -374 c341 -59 726 -203 995 -371 592 -372 1016 -967 1180 -1657 41 -172
56 -303 62 -525 7 -271 -19 -523 -78 -748 -24 -92 -110 -328 -146 -398 l-24
-49 -334 3 -335 3 60 28 c69 31 169 121 207 186 89 151 82 341 -17 490 -100
149 -290 233 -463 204 -254 -43 -426 -275 -390 -525 21 -147 127 -298 254
-361 l54 -27 -1492 3 c-821 2 -1493 4 -1493 4 0 1 24 13 53 28 104 51 197 162
238 283 17 53 21 82 17 163 -3 88 -7 104 -41 172 -61 125 -188 227 -318 257
-244 57 -498 -104 -564 -354 -50 -194 36 -398 219 -517 l60 -38 -274 2 -274 3
-39 95 c-22 52 -57 145 -78 205 l-37 110 142 3 142 3 12 83 c21 158 75 268
182 369 236 223 587 220 815 -7 110 -110 174 -255 175 -393 l0 -53 1060 0
1060 0 0 35 c0 63 31 188 62 252 45 91 114 171 198 228 176 119 397 134 589
39 94 -46 212 -161 259 -251 37 -71 72 -196 72 -260 l0 -43 78 0 c61 0 85 5
117 23 62 35 75 71 75 212 0 134 -13 170 -68 199 -39 20 -44 48 -41 250 3 159
2 164 -23 207 -43 72 -19 60 -608 315 -75 33 -146 71 -177 97 -29 23 -191 191
-361 372 -407 436 -420 447 -555 482 -56 14 -191 15 -1466 9 -1160 -6 -1402
-5 -1395 6 27 46 157 210 241 303 270 299 623 542 1001 689 179 70 508 151
712 176 121 14 589 5 700 -14z m285 -1495 c22 -10 63 -43 91 -72 98 -102 424
-490 424 -503 0 -8 -7 -17 -16 -20 -9 -3 -233 -6 -498 -6 -362 0 -485 3 -494
12 -9 9 -12 89 -12 298 0 209 3 289 12 298 9 9 74 12 233 12 193 0 225 -3 260
-19z m-201 -937 c19 -18 21 -55 4 -72 -8 -8 -57 -12 -153 -12 -96 0 -145 4
-153 12 -15 15 -15 43 -2 69 10 17 23 19 150 19 113 0 142 -3 154 -16z m-2129
-693 c52 -23 101 -80 115 -132 40 -149 -114 -283 -258 -224 -163 69 -160 302
5 360 52 19 91 18 138 -4z m3280 8 c54 -15 120 -82 135 -138 32 -119 -61 -240
-185 -241 -53 0 -121 35 -159 83 -23 29 -31 50 -34 95 -7 92 41 168 125 197
47 17 67 18 118 4z m567 -956 c-264 -392 -615 -702 -1032 -909 -397 -198 -746
-279 -1190 -278 -291 0 -504 31 -757 108 -616 190 -1100 544 -1477 1083 l-57
83 2283 2 c1256 2 2284 2 2286 1 2 -1 -23 -41 -56 -90z"/>
</g>
</svg>
